<?xml version="1.0" standalone="no"?>
<!DOCTYPE svg PUBLIC "-//W3C//DTD SVG 20010904//EN"
 "http://www.w3.org/TR/2001/REC-SVG-20010904/DTD/svg10.dtd">
<svg version="1.0" xmlns="http://www.w3.org/2000/svg"
 width="300.000000pt" height="300.000000pt" viewBox="0 0 300.000000 300.000000"
 preserveAspectRatio="xMidYMid meet">
<metadata>
Created by potrace 1.11, written by Peter Selinger 2001-2013
</metadata>
<g transform="translate(0.000000,300.000000) scale(0.100000,-0.100000)"
fill="#000000" stroke="none">
<path d="M0 1500 l0 -1500 1500 0 1500 0 0 1500 0 1500 -1500 0 -1500 0 0
-1500z m1830 915 c0 -217 3 -395 6 -395 4 0 45 15 93 34 113 46 201 60 325 53
238 -12 421 -126 525 -327 76 -147 108 -312 98 -503 -22 -395 -237 -649 -600
-707 -126 -21 -370 -7 -547 29 -80 17 -148 31 -152 31 -5 0 -8 481 -8 1068 l0
1068 123 21 c67 11 125 21 130 22 4 0 7 -177 7 -394z m-940 -250 c194 -48 356
-178 444 -355 68 -139 90 -251 83 -440 -9 -256 -69 -415 -211 -555 -131 -131
-254 -178 -456 -178 -127 0 -202 16 -307 63 l-63 29 0 -295 0 -294 -135 0
-135 0 2 988 3 987 130 27 c72 15 166 32 210 37 113 14 356 6 435 -14z"/>
<path d="M2039 1866 c-64 -18 -160 -63 -186 -88 l-23 -21 0 -468 c0 -437 1
-468 18 -473 97 -28 332 -35 418 -12 251 67 380 324 333 663 -38 278 -180 415
-428 412 -47 0 -107 -6 -132 -13z"/>
<path d="M442 1938 l-62 -10 2 -476 3 -477 52 -31 c89 -53 154 -69 283 -69
105 0 120 3 177 29 76 35 154 113 189 190 78 172 72 490 -13 635 -62 106 -153
176 -268 206 -67 17 -260 19 -363 3z"/>
</g>
</svg>
